<?xml version="1.0" standalone="no"?><!DOCTYPE svg PUBLIC "-//W3C//DTD SVG 1.1//EN" "http://www.w3.org/Graphics/SVG/1.1/DTD/svg11.dtd"><svg t="1573391169627" class="icon" viewBox="0 0 1060 1024" version="1.1" xmlns="http://www.w3.org/2000/svg" p-id="57599" xmlns:xlink="http://www.w3.org/1999/xlink" width="207.03125" height="200"><defs><style type="text/css"></style></defs><path d="M1050.016028 229.387266c6.792978-21.290187 24.852358-77.70504-12.426179-104.214222a69.338079 69.338079 0 0 0-41.420597-12.011973c-28.745894 0-72.486045 17.065286-122.522126 45.645498a37.941267 37.941267 0 0 0-7.124342-10.023784A507.81652 507.81652 0 0 0 0.003894 507.733679a503.177413 503.177413 0 0 0 159.552139 369.554566 38.18979 38.18979 0 0 0 26.3435 10.437991h2.816601a507.567996 507.567996 0 0 1-61.468166 52.189952 38.438314 38.438314 0 0 0 12.591861 68.67535 597.864898 597.864898 0 0 0 135.196829 15.325621c79.11334 0 144.392201-16.568239 194.676806-49.704717v2.982283a38.438314 38.438314 0 0 0 38.438314 38.438314 508.396408 508.396408 0 0 0 507.81652-507.816519 38.438314 38.438314 0 1 0-76.793787 0 431.436939 431.436939 0 0 1-425.555214 430.774209c39.51525-39.266726 59.728501-83.586765 57.988836-127.575439a128.403851 128.403851 0 0 0-17.065286-57.988836 115.480625 115.480625 0 0 0 36.284443 5.633201c175.954696-0.082841 415.697112-393.164307 459.188738-529.272389z m-760.647844 654.445434C306.516312 853.761346 366.824701 756.340102 428.127185 756.340102A67.846938 67.846938 0 0 1 463.91458 767.689346a60.059866 60.059866 0 0 1 30.48556 47.053798c1.325459 27.337594-19.219157 59.397136-56.414853 87.977348s-93.279185 44.485721-163.114312 44.485721c-11.597767 0-23.60974-0.414206-35.870237-1.325459a302.950247 302.950247 0 0 0 50.284605-62.213737z m270.890705-306.263895c68.592509-165.682388 333.187283-360.442035 420.750425-385.04587-8.284119 31.562495-36.284443 101.31478-99.409433 202.132514C776.474406 561.000566 654.449327 681.783027 590.413084 681.783027a36.698649 36.698649 0 0 1-27.668959-11.84629c-19.136316-19.136316-19.964728-50.284605-2.485236-92.367932zM76.79768 507.733679a430.774209 430.774209 0 0 1 732.316156-308.00356C682.615333 287.044737 539.879955 426.052261 489.263986 548.160181c-27.006229 65.19602-20.958822 111.587088-4.556266 143.729472a137.930588 137.930588 0 0 0-56.663377-12.343338C332.942653 679.546315 259.711037 781.19246 223.675118 843.323356a38.106949 38.106949 0 0 0-11.514926-21.952917A427.046355 427.046355 0 0 1 76.79768 507.733679z" p-id="57600"></path><path d="M571.608133 301.044899a99.409433 99.409433 0 1 0-99.409433-99.409433 99.409433 99.409433 0 0 0 99.409433 99.409433z m0-76.793787a22.532805 22.532805 0 1 1 22.532804-22.532804A22.532805 22.532805 0 0 1 571.608133 224.251112zM345.203149 576.740393a99.409433 99.409433 0 1 0-99.409433 99.409433 99.409433 99.409433 0 0 0 99.409433-99.409433z m-99.409433-22.532805A22.532805 22.532805 0 1 1 223.675118 576.740393a22.532805 22.532805 0 0 1 22.20144-22.532805zM318.528285 452.395761a132.545911 132.545911 0 1 0-132.545911-132.545911 132.545911 132.545911 0 0 0 132.545911 132.545911z m0-188.546558a55.834965 55.834965 0 1 1-55.834965 55.834965 55.917806 55.917806 0 0 1 55.834965-55.752124z" p-id="57601"></path></svg>