<?xml version="1.0" standalone="no"?><!DOCTYPE svg PUBLIC "-//W3C//DTD SVG 1.1//EN" "http://www.w3.org/Graphics/SVG/1.1/DTD/svg11.dtd"><svg t="1573323602079" class="icon" viewBox="0 0 1024 1024" version="1.1" xmlns="http://www.w3.org/2000/svg" p-id="47432" xmlns:xlink="http://www.w3.org/1999/xlink" width="200" height="200"><defs><style type="text/css"></style></defs><path d="M1024 319.488q-134.144 0-263.168-24.576t-254.976-71.68q-122.88-47.104-247.808-71.68T0 128v-31.744q134.144 0 263.168 24.576t254.976 71.68q122.88 47.104 248.832 71.68T1024 287.744v31.744zM0 256q137.216 0 266.24 24.576t257.024 73.728q121.856 46.08 246.784 69.632T1024 447.488V512q-137.216 0-266.24-24.576T500.736 413.696q-121.856-46.08-245.76-69.632T0 319.488V256z m1024 480.256q-138.24 0-269.312-25.6T494.592 636.928q-119.808-46.08-242.688-69.632T0 543.744V447.488q138.24 0 269.312 25.6T529.408 547.84q119.808 46.08 242.688 68.608T1024 640v96.256zM0 640q139.264 0 272.384 25.6t263.168 74.752q118.784 45.056 239.616 68.608t248.832 22.528v129.024q-139.264 0-272.384-26.624t-263.168-74.752q-118.784-45.056-239.616-67.584T0 768v-128z" p-id="47433"></path></svg>