<?xml version="1.0" standalone="no"?><!DOCTYPE svg PUBLIC "-//W3C//DTD SVG 1.1//EN" "http://www.w3.org/Graphics/SVG/1.1/DTD/svg11.dtd"><svg t="1573312735811" class="icon" viewBox="0 0 1092 1024" version="1.1" xmlns="http://www.w3.org/2000/svg" p-id="39266" xmlns:xlink="http://www.w3.org/1999/xlink" width="213.28125" height="200"><defs><style type="text/css"></style></defs><path d="M1044.753067 902.3488H47.5136a47.5136 47.5136 0 0 0 0 94.890667h997.239467a45.806933 45.806933 0 0 0 33.5872-13.858134 47.5136 47.5136 0 0 0-33.5872-81.032533z m-522.4448-103.970133a33.450667 33.450667 0 0 0 23.825066 8.874666 33.450667 33.450667 0 0 0 23.825067-8.874666l302.2848-290.952534c7.509333-7.236267 8.874667-16.452267 3.6864-24.7808-5.188267-8.3968-32.768-7.714133-44.8512-7.714133h-118.784V47.5136c0-25.941333-13.789867-47.5136-47.445333-47.5136H427.4176c-33.655467 0-47.5136 21.572267-47.5136 47.5136v427.349333H237.431467c-12.014933 0-15.906133-0.6144-21.162667 7.7824-5.188267 8.328533-3.754667 17.544533 3.6864 24.7808l302.421333 290.952534z" p-id="39267"></path></svg>