<?xml version="1.0" standalone="no"?><!DOCTYPE svg PUBLIC "-//W3C//DTD SVG 1.1//EN" "http://www.w3.org/Graphics/SVG/1.1/DTD/svg11.dtd"><svg t="1573308999122" class="icon" viewBox="0 0 1024 1024" version="1.1" xmlns="http://www.w3.org/2000/svg" p-id="37015" xmlns:xlink="http://www.w3.org/1999/xlink" width="200" height="200"><defs><style type="text/css"></style></defs><path d="M440.32 925.013333c-34.133333 0-64.853333-13.653333-92.16-37.546666l-232.106667-232.106667c-51.2-51.2-51.2-133.12 0-180.906667L515.413333 71.68c47.786667-47.786667 133.12-47.786667 180.906667 0l232.106667 232.106667c23.893333 23.893333 37.546667 58.026667 37.546666 92.16 0 34.133333-13.653333 64.853333-37.546666 92.16L532.48 887.466667c-27.306667 23.893333-58.026667 37.546667-92.16 37.546666zM607.573333 102.4c-17.066667 0-30.72 6.826667-40.96 17.066667L163.84 518.826667c-23.893333 23.893333-23.893333 61.44 0 85.333333l232.106667 232.106667c23.893333 23.893333 61.44 23.893333 85.333333 0l399.36-399.36c10.24-10.24 17.066667-27.306667 17.066667-40.96 0-17.066667-6.826667-30.72-17.066667-40.96L648.533333 119.466667c-10.24-10.24-23.893333-17.066667-40.96-17.066667z" p-id="37016"></path><path d="M921.6 989.866667H102.4c-20.48 0-34.133333-13.653333-34.133333-34.133334s13.653333-34.133333 34.133333-34.133333h819.2c20.48 0 34.133333 13.653333 34.133333 34.133333s-13.653333 34.133333-34.133333 34.133334zM439.6032 198.2464L825.7536 584.362667l-241.322667 241.3568L198.212267 439.569067z" p-id="37017"></path></svg>