<?xml version="1.0" standalone="no"?><!DOCTYPE svg PUBLIC "-//W3C//DTD SVG 1.1//EN" "http://www.w3.org/Graphics/SVG/1.1/DTD/svg11.dtd"><svg t="1573368424338" class="icon" viewBox="0 0 1024 1024" version="1.1" xmlns="http://www.w3.org/2000/svg" p-id="52691" xmlns:xlink="http://www.w3.org/1999/xlink" width="200" height="200"><defs><style type="text/css"></style></defs><path d="M906.24 107.52h-184.32c-5.12 0-30.72 5.12-30.72 10.24V179.2c0 10.24 25.6 20.48 30.72 20.48h40.96L512 450.56 261.12 199.68h40.96c5.12 0 30.72-10.24 30.72-15.36V117.76c0-5.12-25.6-10.24-30.72-10.24H117.76c-5.12 0-10.24 5.12-10.24 10.24v184.32c0 5.12 5.12 30.72 10.24 30.72H179.2c10.24 0 20.48-25.6 20.48-30.72v-40.96L450.56 512 199.68 762.88v-40.96c0-5.12-10.24-30.72-15.36-30.72H117.76c-5.12 0-10.24 25.6-10.24 30.72v184.32c0 5.12 5.12 10.24 10.24 10.24h184.32c5.12 0 30.72-5.12 30.72-10.24V844.8c0-10.24-25.6-20.48-30.72-20.48h-40.96L512 573.44l250.88 250.88h-40.96c-5.12 0-30.72 10.24-30.72 15.36v61.44c0 5.12 25.6 10.24 30.72 10.24h184.32c5.12 0 10.24-5.12 10.24-10.24V716.8c0-5.12-5.12-30.72-10.24-30.72H844.8c-5.12 0-15.36 25.6-15.36 30.72V768l-256-256 250.88-250.88v40.96c0 5.12 10.24 30.72 15.36 30.72h61.44c10.24 0 15.36-25.6 15.36-30.72V117.76c0-5.12-5.12-10.24-10.24-10.24z" p-id="52692"></path></svg>