<?xml version="1.0" standalone="no"?><!DOCTYPE svg PUBLIC "-//W3C//DTD SVG 1.1//EN" "http://www.w3.org/Graphics/SVG/1.1/DTD/svg11.dtd"><svg t="1573311720184" class="icon" viewBox="0 0 1024 1024" version="1.1" xmlns="http://www.w3.org/2000/svg" p-id="38532" xmlns:xlink="http://www.w3.org/1999/xlink" width="200" height="200"><defs><style type="text/css"></style></defs><path d="M512 512h213.333333a42.666667 42.666667 0 0 1 0 85.333333h-256a42.666667 42.666667 0 0 1-42.666666-42.666666v-341.333334a42.666667 42.666667 0 0 1 85.333333 0V512z m0 512A512 512 0 1 1 512 0a512 512 0 0 1 0 1024z m0-85.333333A426.666667 426.666667 0 1 0 512 85.333333a426.666667 426.666667 0 0 0 0 853.333334z" p-id="38533"></path></svg>