<?xml version="1.0" standalone="no"?><!DOCTYPE svg PUBLIC "-//W3C//DTD SVG 1.1//EN" "http://www.w3.org/Graphics/SVG/1.1/DTD/svg11.dtd"><svg t="1573378598414" class="icon" viewBox="0 0 1024 1024" version="1.1" xmlns="http://www.w3.org/2000/svg" p-id="56089" xmlns:xlink="http://www.w3.org/1999/xlink" width="200" height="200"><defs><style type="text/css"></style></defs><path d="M878.279151 114.073058 145.753595 114.073058c-43.801599 0-79.432097 35.601846-79.432097 79.33386l0 536.744567c0 43.765783 35.629475 79.365582 79.432097 79.365582l265.720897 0 100.558254 100.409874 100.493785-100.409874 265.751596 0c43.801599 0 79.399351-35.601846 79.399351-79.365582l0-536.744567C957.678502 149.672858 922.079726 114.073058 878.279151 114.073058L878.279151 114.073058 878.279151 114.073058 878.279151 114.073058zM876.614232 228.451062l0 469.349621c0 22.632463-18.160615 41.041742-40.455387 41.041742L579.336618 738.842425l-67.283406 68.269873-67.344804-68.269873L187.94758 738.842425c-22.356171 0-40.516786-18.410302-40.516786-41.041742l0-469.349621c0-22.632463 18.160615-41.041742 40.516786-41.041742l648.210241 0c22.294772 0 40.455387 18.410302 40.455387 41.041742l0 0L876.614232 228.451062 876.614232 228.451062z" p-id="56090"></path><path d="M627.224278 447.886797c0 29.096688 23.684422 52.81181 52.780087 52.81181 29.129434 0 52.812833-23.716144 52.812833-52.81181 0-29.097712-23.684422-52.78111-52.812833-52.78111C650.907677 395.105686 627.224278 418.790108 627.224278 447.886797L627.224278 447.886797z" p-id="56091"></path><path d="M459.20354 447.886797c0 29.096688 23.716144 52.81181 52.81181 52.81181 29.097712 0 52.78111-23.716144 52.78111-52.81181 0-29.097712-23.684422-52.78111-52.78111-52.78111C482.918661 395.105686 459.20354 418.790108 459.20354 447.886797L459.20354 447.886797z" p-id="56092"></path><path d="M291.213501 447.886797c0 29.096688 23.684422 52.81181 52.78111 52.81181 29.096688 0 52.780087-23.716144 52.780087-52.81181 0-29.097712-23.684422-52.78111-52.780087-52.78111C314.897923 395.105686 291.213501 418.790108 291.213501 447.886797L291.213501 447.886797z" p-id="56093"></path></svg>