<?xml version="1.0" standalone="no"?><!DOCTYPE svg PUBLIC "-//W3C//DTD SVG 1.1//EN" "http://www.w3.org/Graphics/SVG/1.1/DTD/svg11.dtd"><svg t="1573322415780" class="icon" viewBox="0 0 1024 1024" version="1.1" xmlns="http://www.w3.org/2000/svg" p-id="42035" xmlns:xlink="http://www.w3.org/1999/xlink" width="200" height="200"><defs><style type="text/css"></style></defs><path d="M986.974 856.258H266.483c-15.086-57.882-67.555-100.843-130.03-100.843-73.949 0-134.29 60.178-134.29 134.293C2.16 963.659 62.34 1024 136.455 1024c62.473 0 115.107-42.796 130.028-100.678h720.653c18.53 0 33.615-15.086 33.615-33.613-0.164-18.531-15.25-33.45-33.778-33.45zM136.452 956.936c-37.056 0-67.063-30.17-67.063-67.064 0-37.058 30.172-67.065 67.066-67.065 36.894 0 67.063 30.171 67.063 67.065 0 36.893-30.17 67.064-67.063 67.064h-0.002zM987.63 478.467H884.164c-14.921-57.88-67.557-100.677-130.03-100.677-62.472 0-115.107 42.796-130.029 100.678H40.04c-18.53 0-33.613 15.085-33.613 33.613 0 18.53 15.085 33.615 33.613 33.615h584.064c14.922 57.882 67.556 100.678 130.03 100.678 62.473 0 115.108-42.796 130.028-100.678h103.467c18.529 0 33.612-15.085 33.612-33.614 0-18.693-15.083-33.614-33.612-33.614zM754.134 579.145c-37.057 0-67.064-30.169-67.064-67.063s30.17-67.063 67.064-67.063c37.057 0 67.063 30.17 67.063 67.063s-30.006 67.063-67.063 67.063zM136.452 268.421c62.475 0 115.108-42.797 130.031-100.678h720.653c18.528 0 33.613-15.086 33.613-33.615 0-18.528-15.085-33.614-33.613-33.614H266.483C251.396 42.796 198.927 0 136.453 0 62.338 0 2.16 60.176 2.16 134.292c0 73.951 60.18 134.13 134.294 134.13h-0.002z m0-201.357c37.059 0 67.065 30.17 67.065 67.064 0 37.058-30.17 67.065-67.064 67.065S69.39 171.022 69.39 134.127c-0.162-36.893 30.007-67.064 67.066-67.064h-0.002z" p-id="42036"></path></svg>