<?xml version="1.0" standalone="no"?><!DOCTYPE svg PUBLIC "-//W3C//DTD SVG 1.1//EN" "http://www.w3.org/Graphics/SVG/1.1/DTD/svg11.dtd"><svg t="1573892018028" class="icon" viewBox="0 0 1024 1024" version="1.1" xmlns="http://www.w3.org/2000/svg" p-id="10040" xmlns:xlink="http://www.w3.org/1999/xlink" width="64" height="64"><defs><style type="text/css"></style></defs><path d="M111.304348 912.695652h178.086956a44.521739 44.521739 0 0 1 0 89.043478h-222.608695a44.388174 44.388174 0 0 1-44.521739-44.521739v-222.608695a44.521739 44.521739 0 0 1 89.043478 0v178.086956zM912.695652 912.695652v-178.086956a44.521739 44.521739 0 0 1 89.043478 0v222.608695a44.388174 44.388174 0 0 1-44.521739 44.521739h-222.608695a44.521739 44.521739 0 0 1 0-89.043478h178.086956zM111.304348 111.304348v178.086956a44.521739 44.521739 0 1 1-89.043478 0v-222.608695a44.388174 44.388174 0 0 1 44.521739-44.521739h222.608695a44.521739 44.521739 0 1 1 0 89.043478h-178.086956zM912.695652 111.304348h-178.086956a44.521739 44.521739 0 0 1 0-89.043478h222.608695a44.388174 44.388174 0 0 1 44.521739 44.521739v222.608695a44.521739 44.521739 0 0 1-89.043478 0v-178.086956zM476.694261 200.347826L289.391304 768.044522h79.426783l43.008-130.582261h209.252174l42.963478 130.582261H743.513043L556.165565 200.347826h-79.471304z m39.802435 120.030609l78.580869 237.612522H437.782261l78.714435-237.612522z" p-id="10041"></path></svg>