<?xml version="1.0" standalone="no"?><!DOCTYPE svg PUBLIC "-//W3C//DTD SVG 1.1//EN" "http://www.w3.org/Graphics/SVG/1.1/DTD/svg11.dtd"><svg t="1573893365402" class="icon" viewBox="0 0 1024 1024" version="1.1" xmlns="http://www.w3.org/2000/svg" p-id="14886" width="200" height="200" xmlns:xlink="http://www.w3.org/1999/xlink"><defs><style type="text/css"></style></defs><path d="M886.7 361.2c-3.7-3.9-8-7.1-12.3-10.3-112.5-85.8-225.1-171.3-337.1-257.6-16.8-12.9-28.8-12.9-45.5 0.1-79.9 62.1-160.6 123.1-241 184.5-34.6 26.5-69.2 52.8-103.9 79.3-9.1 7-13.4 15.8-5.7 25.9 7.6 10 16.8 8.4 26.4 1.5 6.1-4.4 10.9-11.9 20.5-11.4 0 125.2-0.2 250 0.1 374.7 0.1 55 34.6 88.7 89.7 88.7h462.9c67.3 0 99.2-32.2 99.2-100.3 0.1-121.4 0-242.8 0-368.2 10.5 7.7 17.9 13.2 25.3 18.6 7.9 5.8 15.6 4.6 21.7-2.1 6.5-7.3 6.7-15.9-0.3-23.4z m-81.9 385.5c-0.1 36.3-19.6 54.9-56.5 55-78.5 0.1-157 0.1-235.5 0.1-77.8 0-155.7 0.1-233.5 0-37.9-0.1-57.4-18.5-57.5-56.4-0.4-130.1-0.1-260.3-0.4-390.4 0-9.4 3.8-14.4 10.6-19.6 90.7-68.9 181.3-137.9 271.6-207.4 8.6-6.6 13.5-6.4 22 0.1 89.3 68.6 178.8 136.8 268.6 204.7 7.8 5.9 10.8 11.9 10.8 21.5-0.2 130.7 0.1 261.6-0.2 392.4z" p-id="14887"></path><path d="M903.7 346.3c-4.8-5.1-9.9-8.9-14.5-12.4l-0.5-0.4c-29.7-22.6-59.4-45.2-89-67.8-82.6-62.9-168.1-128-251.7-192.5-7.8-6-20-14-35.4-14-15.5 0-27.6 8.1-35.4 14.1-61.1 47.5-123.8 95.2-184.4 141.4-19.7 15-39.5 30.1-59.2 45.1-17.5 13.4-35.1 26.8-52.6 40.2-17.5 13.3-34.9 26.7-52.4 40-8.5 6.5-14.1 14-16.5 22.5-3.1 10.8-0.7 22.2 6.8 32.1 7.4 9.8 17.6 15.1 28.6 15.1 4.9 0 9.7-1 14.6-3v79.5c0 86.9-0.1 176.8 0.1 265.2 0.1 32.7 10.6 60.4 30.5 80 19.8 19.5 47.6 29.8 80.4 29.8h468.1c40.1 0 69.5-10.1 90.1-30.9 20.5-20.7 30.5-50.4 30.5-90.8V493.6v-87.4c5 2.4 10.2 3.6 15.5 3.6 9.8 0 19.3-4.4 26.6-12.4 14.2-15.3 14.1-35.8-0.2-51.1zM786 538.3c0 69.4 0 141.1-0.1 211.6 0 25.4-10.4 35.3-37 35.4-34.3 0.1-71 0.1-119 0.1H274.8c-27.6-0.1-37.9-10-38-36.8-0.2-65.8-0.2-132.7-0.2-197.4 0-64.7 0-131.6-0.2-197.4 0-0.7 0.1-1.2 0.1-1.4 0.2-0.3 0.9-1 2.7-2.3C319.7 289 415 216.4 512.7 141.3c87.2 67 178.2 136.3 270.6 206.2 2.9 2.2 2.9 2.4 2.9 5.6-0.2 61.7-0.2 124.5-0.2 185.2z" p-id="14888"></path><path d="M513 527.3c-48.2 0-96.4-0.1-144.6 0.1-12.5 0.1-24-1.5-24.4-16.7-0.4-15.5 11.4-17.6 23.7-17.6 97.7 0 195.5 0.1 293.3-0.1 12.4 0 24.3 1.9 24.4 17 0.1 16.7-12.9 17.5-25.8 17.4-48.9-0.2-97.8-0.1-146.6-0.1z" p-id="14889"></path><path d="M660.6 548.4h-1.4c-18.5-0.1-38.7-0.1-63.5-0.1H427.3c-24.4 0-44.3 0-62.6 0.1h-0.9c-8 0-17.4-0.6-25.9-5.2-6.6-3.5-17.7-12.3-18.2-31.4-0.3-13.8 5.1-22.3 9.8-27.1 10-10.2 23.6-11.5 34.4-11.5h148.4c59.8 0 105.5 0 148.3-0.1 7.7 0 17.6 0.6 26.4 5.2 11.9 6.2 18.5 17.6 18.6 32.2 0.1 13.7-5.4 22.1-10 26.8-11.1 11.1-26.7 11.1-35 11.1z" p-id="14890"></path><path d="M514.4 630H369.9c-12.5 0-26.2 0.1-25.9-17 0.4-16.3 13.5-17.3 26.2-17.3 96.3 0.1 192.7 0.1 289.1 0 12.9 0 26 1.3 25.9 17.7 0 17-13.7 16.7-26.2 16.7-48.2-0.2-96.4-0.1-144.6-0.1z" p-id="14891"></path><path d="M659.5 652.2h-0.9c-21.1-0.1-43.7-0.1-73.1-0.1H365.9c-10.2 0-25.6 0-36.5-11.1-4.6-4.6-9.9-13.1-9.6-26.8 0.4-20.6 12.9-29.4 20.3-32.9 8.8-4.1 18.3-4.4 26.5-4.4 97.4 0.1 194.9 0.1 292.3 0 8.7 0 24.9 0 36.3 11.4 4.6 4.7 10.2 13.1 10.1 26.7 0 15.4-7.4 27.5-20.2 33.2-8.8 4-18.5 4-25.6 4z" p-id="14892"></path><path d="M514.6 699.7c48.8 0 97.7 0.1 146.6-0.1 12.4-0.1 24.2 1 24.1 16.6-0.1 15.3-11.6 17.1-24.1 17.1-97.7-0.1-195.4-0.1-293.2 0-12.4 0-24-1.7-24.1-17.1-0.1-15.8 11.8-16.6 24.1-16.6 48.9 0.3 97.7 0.1 146.6 0.1z" p-id="14893"></path><path d="M661 756.7c-49.2-0.1-99.1-0.1-148.2-0.1s-99 0-148.2 0.1c-8.2 0-17.7-0.6-26.3-5.1-6.8-3.6-18.2-12.5-18.3-32.3-0.1-13.5 5.3-21.7 9.8-26.3 10.8-10.9 25.8-10.9 34.7-10.9 18.6 0.1 38.7 0.1 63.4 0.1h169.5c24.7 0 44.9 0 63.4-0.1h1.1c7.4 0 22.9 0 33.8 10.9 4.5 4.5 9.9 12.8 9.8 26.2-0.1 19.7-11.4 28.6-18.2 32.2-8.6 4.7-18.2 5.3-26.3 5.3z" p-id="14894"></path></svg>