<?xml version="1.0" standalone="no"?><!DOCTYPE svg PUBLIC "-//W3C//DTD SVG 1.1//EN" "http://www.w3.org/Graphics/SVG/1.1/DTD/svg11.dtd"><svg t="1574092457227" class="icon" viewBox="0 0 1024 1024" version="1.1" xmlns="http://www.w3.org/2000/svg" p-id="8850" width="16" height="16" xmlns:xlink="http://www.w3.org/1999/xlink"><defs><style type="text/css"></style></defs><path d="M512 1024c-22.092 0-40-17.908-40-40V654c0-22.092 17.908-40 40-40s40 17.908 40 40v330c0 22.092-17.908 40-40 40z m40-654V40c0-22.092-17.908-40-40-40s-40 17.908-40 40v330c0 22.092 17.908 40 40 40s40-17.908 40-40z m472 142c0-22.092-17.908-40-40-40H652c-22.092 0-40 17.908-40 40s17.908 40 40 40h332c22.092 0 40-17.908 40-40z m-614 0c0-22.092-17.908-40-40-40H40c-22.092 0-40 17.908-40 40s17.908 40 40 40h330c22.092 0 40-17.908 40-40z m102 40c22.092 0 40-17.908 40-40s-17.908-40-40-40-40 17.908-40 40 17.908 40 40 40z" p-id="8851"></path></svg>