<?xml version="1.0" standalone="no"?><!DOCTYPE svg PUBLIC "-//W3C//DTD SVG 1.1//EN" "http://www.w3.org/Graphics/SVG/1.1/DTD/svg11.dtd"><svg t="1574092978699" class="icon" viewBox="0 0 1107 1024" version="1.1" xmlns="http://www.w3.org/2000/svg" p-id="10472" xmlns:xlink="http://www.w3.org/1999/xlink" width="17.296875" height="16"><defs><style type="text/css"></style></defs><path d="M609.8202730208333 58.7715589583333c-12.4127915625 4.3414565625-28.220728125 11.297854687500001-30.20143875 13.291150312500001-0.6921159375 0.694633125-6.2491809375 4.653538125-12.347355 8.7936525-9.719829375 6.5990146874999995-292.4505984375 287.792026875-426.40907999999996 424.0911196875C78.28753489583336 568.6146308333333 68.68096020833333 586.3604933333335 68.74388052083329 638.1509267708334c0.07047 58.442300625 7.802038125 70.8576084375 104.41392375000001 167.708589375 92.59006125 92.82160499999999 111.33760406249999 108.493635 154.7823740625 129.398064375 6.2290471875 2.997493125 13.3465190625 6.533578125 15.815486250000001 7.8599240625 26.2677009375 14.106588749999998 89.79391125 26.285318437500003 135.1917075 25.917868125 36.760185-0.2994975 98.836725-11.2601034375 106.8375890625-18.865831874999998 1.3137628124999998-1.2508425 4.1073956250000005-2.2726584375 6.2089125-2.2726584375 3.264271875 0 43.877656875-19.4950284375 59.3961628125-28.510157812499997 10.6032215625-6.1610934375 28.90026-20.2500646875 28.90026-22.2534271875 0-1.1476546875 1.1828896875-2.0889328125 2.6275256249999996-2.0889328125 4.06461 0 12.5562478125-8.320496250000001 181.993869375-178.35962999999998 87.4054809375-87.7150453125 160.78491-161.3310525 163.062601875-163.591126875 38.4741159375-38.159518125 42.2392284375-118.0976925 8.136770624999999-172.73209500000002-6.2114296875-9.9513740625-244.39255875000003-251.38670906250002-289.65948187500004-293.615870625C716.4741373958334 58.77910958333332 649.1802983333334 45.002219895833335 609.8202730208333 58.7715589583333m76.76199 77.50947656250001c17.849050312499998 8.383415625000001 14.255079375 4.983237187499999 163.591126875 154.83774281249998 139.46772750000002 139.950950625 123.86113406249999 122.3057596875 131.22776812499998 148.38721875 13.36665375 47.330687812499995 15.48075375 44.4489675-165.77066343750002 225.9243796875l-149.0315165625 149.21524125-183.1717265625-183.1591415625c-100.7469665625-100.7394159375-182.8596440625-184.1104875-182.4720590625-185.27072625 1.555374375-4.6636059375 300.59240343749997-301.97160187500003 307.6066875-305.8273190625 27.24673125-14.9748796875 52.09999875-16.2836090625 78.02038312500001-4.1073956250000005M429.3842942708333 678.1325980208334l180.690174375 180.7379934375-13.338969375000001 7.384251562499999c-72.4582846875 40.0999603125-145.158181875 45.87346875-222.64500656250001 17.67790875-11.632587187499999-4.2332353125-47.959884375-23.227423125-51.183887812500004-26.7609909375-0.6921159375-0.7600696875-4.7340759375-3.8053809375-8.9849278125-6.770156249999999-14.068836562500001-9.8154675-125.3284209375-119.01631968749999-154.523145-151.666591875-20.08647375-22.46232-26.005955625-64.719166875-12.868329375-91.86270937500001 4.50253125-9.304559999999999 97.8400771875-109.4802159375 102.00535875-109.480215 0.0855703125 0 81.46838062500001 81.33247499999999 180.8487328125 180.74050968749998" p-id="10473"></path></svg>